<svg width="165" height="46" viewBox="0 0 165 46" fill="none" xmlns="http://www.w3.org/2000/svg">
<path d="M25.7335 13.6164C26.0557 13.5828 26.388 13.6169 26.701 13.6951C27.6281 13.9268 28.2567 14.496 28.7343 15.292C29.114 15.2517 29.4978 15.2752 29.8696 15.3614C30.6632 15.5582 31.3475 16.0524 31.7769 16.739C31.9888 17.0773 32.1295 17.4542 32.1906 17.8472C32.2516 18.2402 32.2317 18.6413 32.1321 19.0266C31.8668 20.0293 31.2302 20.5514 30.3631 21.0515C30.3872 21.6671 30.3781 22.2857 30.3795 22.9018C30.3802 23.2911 30.4057 23.6972 30.3675 24.0834C30.3511 24.2473 30.3191 24.3815 30.2339 24.5232C30.1094 24.6122 29.982 24.6393 29.8306 24.6575C29.4339 24.7052 29.0029 24.6729 28.6029 24.672L26.2438 24.6637C25.4048 24.7256 24.5162 24.667 23.672 24.6677C23.1101 24.6681 22.4775 24.7339 21.9226 24.6714C21.7246 24.6491 21.6401 24.5188 21.5318 24.3732C21.4618 23.2681 21.5213 22.1263 21.5217 21.0173C21.0596 20.7812 20.6665 20.4914 20.3445 20.084C20.1043 19.78 19.9277 19.4322 19.8249 19.0605C19.722 18.6888 19.695 18.3007 19.7453 17.9187C19.8658 17.1058 20.3063 16.3723 20.9714 15.8769C21.6293 15.3909 22.408 15.1929 23.2187 15.3041C23.3316 15.1084 23.4442 14.9119 23.5843 14.7335C24.1245 14.0455 24.8771 13.7241 25.7335 13.6164ZM25.7787 14.9736C25.2523 15.0769 24.7988 15.265 24.4812 15.7205C24.3034 15.9755 24.141 16.7081 23.9194 16.82C23.626 16.8546 23.319 16.7198 23.0347 16.6579C22.464 16.5337 21.819 16.7602 21.4653 17.2187C21.1744 17.5958 21.0375 18.1158 21.1154 18.5839C21.1859 19.0073 21.4448 19.3624 21.7992 19.6051C22.1859 19.8699 22.617 19.9224 22.8841 20.3381C22.9333 21.3012 22.8976 22.2809 22.8991 23.246C24.0231 23.2373 25.1471 23.2349 26.2711 23.2389L29.0167 23.2333C29.0164 22.7441 28.9108 20.3112 29.1394 20.0723C29.2468 19.9603 29.4925 19.892 29.6377 19.8356C30.2918 19.5813 30.7704 19.1405 30.8301 18.415C30.8698 17.9359 30.7133 17.5052 30.3912 17.1481C30.0978 16.8229 29.7149 16.6504 29.2741 16.6245C28.8871 16.6017 28.0904 16.9669 27.8472 16.695C27.7289 16.5626 27.6816 16.3354 27.6212 16.169C27.3737 15.4842 26.8561 15.0868 26.1281 14.9925C26.0113 14.9774 25.8962 14.9712 25.7787 14.9736Z" fill="white"/>
<path d="M38.7017 9.37416C38.9452 9.35662 39.2374 9.35978 39.4296 9.53501C39.6087 9.69815 39.6171 9.95993 39.5574 10.1779C39.4129 10.7059 38.9495 11.3383 38.6707 11.8185C38.2245 12.5868 37.8081 13.3763 37.3749 14.1528C37.107 14.6337 36.7827 15.1256 36.5683 15.628C36.5002 15.7878 36.4485 15.9556 36.4562 16.1308C36.4627 16.283 36.5166 16.3976 36.6338 16.4975C36.7998 16.6388 37.0189 16.7491 37.2442 16.7194C37.3942 16.6998 37.5143 16.6212 37.6071 16.5058C37.9249 16.111 38.1131 15.5612 38.3453 15.1145L39.9458 12.0255C40.135 11.6562 40.3018 11.2031 40.5675 10.8838C40.708 10.7149 40.8386 10.6347 41.0629 10.6159C41.2401 10.6009 41.4127 10.6467 41.5495 10.7616C41.7115 10.898 41.7872 11.1175 41.7552 11.3238C41.6937 11.7206 41.3402 12.2025 41.1517 12.5641L39.6986 15.413C39.4395 15.9268 39.1355 16.4521 38.9266 16.9874C38.8782 17.1119 38.8298 17.2513 38.848 17.3864C38.8691 17.5448 38.9867 17.6839 39.1148 17.7736C39.2582 17.874 39.4533 17.9406 39.6295 17.9019C39.8322 17.8573 39.9742 17.711 40.0877 17.5482C40.3462 17.1783 40.5172 16.6924 40.7076 16.283L41.9481 13.654C42.1818 13.1549 42.3947 12.5688 42.7063 12.1155C42.8184 11.9524 42.9389 11.8222 43.1453 11.7907C43.3542 11.7588 43.5657 11.8464 43.7233 11.9772C43.8547 12.086 43.9526 12.2138 43.9584 12.3879C43.9737 12.8349 43.1533 14.3866 42.9301 14.8854L42.0511 16.8499C41.6194 17.8186 41.251 18.7898 40.5234 19.5913C39.8067 20.3807 38.9914 20.7155 38.0075 21.0675C37.8 21.1418 37.4819 21.215 37.3057 21.3407C36.9578 21.5894 36.7154 22.0493 36.5112 22.4119C36.3546 22.6907 36.1544 22.9935 36.0562 23.2981C35.9117 23.7469 36.0074 25.1194 36.0074 25.6611L36.0059 32.6572L36.0096 34.7961C36.0103 35.2151 36.0358 35.6531 35.9892 36.0692C35.9721 36.2216 35.9117 36.3917 35.7985 36.5011C35.4578 36.8318 34.2024 36.7149 33.7204 36.7123L30.4351 36.708C30.6243 36.2058 30.8584 35.7123 31.1052 35.2348C31.5314 35.1907 31.9696 35.2097 32.3984 35.2094L34.5176 35.2104L34.5179 26.0678C34.2435 26.7179 33.8941 27.3537 33.5781 27.9859C33.0161 29.1054 32.4602 30.2279 31.9103 31.3533C31.2466 32.7222 30.5723 34.0862 29.8876 35.445C29.6012 36.0129 29.3467 36.6115 29.0213 37.1582C28.8892 37.3799 28.7298 37.5801 28.5088 37.7225C28.2087 37.914 27.8445 37.9823 27.494 37.9129C27.3236 37.8778 27.1624 37.8083 27.0205 37.709C26.8786 37.6096 26.759 37.4824 26.6692 37.3354C26.4792 37.0298 26.4308 36.6872 26.5342 36.3436C26.7031 35.7822 27.0587 35.2406 27.3393 34.7262L28.6752 32.2816C30.2931 29.3195 31.9245 26.3587 33.4897 23.3694C33.8588 22.6648 34.6941 21.3294 34.895 20.6657C35.1142 19.9433 34.6541 19.0783 34.5194 18.3677C34.3982 17.7287 34.4131 17.1133 34.5776 16.483C34.6467 16.2136 34.7444 15.9521 34.8692 15.7028C35.0829 15.282 35.3406 14.8792 35.5786 14.4714L36.8125 12.3412L37.8084 10.6142C38.005 10.2738 38.1917 9.90702 38.4298 9.59351C38.504 9.49566 38.5961 9.43572 38.7017 9.37416Z" fill="white"/>
<path d="M16.3032 8.09347C17.4456 8.03382 18.6132 8.0849 19.7587 8.08594L26.3232 8.08834L32.2792 8.0854C33.2452 8.08529 34.2491 8.03019 35.2118 8.09132C35.4088 8.1038 35.6326 8.15865 35.7815 8.29442C35.9122 8.41361 35.9682 8.62306 35.9933 8.78997C36.0443 9.12852 36.0141 9.4996 36.0134 9.84278L36.005 11.7892C35.5282 12.5558 35.0062 13.3007 34.5053 14.0526C34.5494 13.5481 34.5188 13.0236 34.5188 12.5165L34.5184 9.66396C28.8074 9.66891 23.0892 9.72082 17.3787 9.66052C17.321 11.9967 17.3738 14.3477 17.3738 16.6852L17.3769 29.6066L25.0743 29.6034L27.4578 29.5991C27.8989 29.5984 28.3685 29.5675 28.8056 29.6227C28.6433 30.1255 28.3346 30.6306 28.0947 31.1041L20.1603 31.0872L17.7715 31.0861C17.2271 31.0872 16.66 31.0614 16.1208 31.1403C15.6566 31.2057 15.2193 31.3946 14.8559 31.6866C14.4117 32.0414 14.0882 32.5547 14.0419 33.1243C14.0011 33.6258 14.2 34.11 14.526 34.4885C14.832 34.8436 15.3023 35.1123 15.7665 35.1998C16.4449 35.3278 17.4531 35.2371 18.1673 35.2392L23.0219 35.2435C23.9245 35.2443 24.8439 35.2062 25.7437 35.2719C25.5839 35.7389 25.438 36.2443 25.347 36.7286C24.5328 36.6565 23.6659 36.7153 22.845 36.7153L17.9835 36.7142C17.1374 36.7164 16.1745 36.8132 15.349 36.6364C14.7693 36.5123 14.2251 36.211 13.7717 35.8386C13.0406 35.2389 12.5805 34.3131 12.5058 33.3829C12.4641 32.8628 12.4943 32.3233 12.4966 31.8014L12.4977 29.2684L12.4973 20.5088L12.4956 14.4348C12.495 13.6535 12.4221 12.2797 12.5286 11.5422C12.6282 10.8109 12.9421 10.1241 13.4317 9.56582C14.1529 8.71924 15.1858 8.18963 16.3032 8.09347ZM15.851 9.72752C15.0468 10.0537 14.4566 10.4622 14.1141 11.2781C13.9959 11.5596 13.9644 11.9066 13.9541 12.2097C13.9038 13.6962 13.9503 15.2008 13.9513 16.6896L13.9525 25.283L13.9531 29.0928C13.9535 29.5244 13.8725 30.113 13.9681 30.5244L14.0025 30.5362L14.0558 30.5018C14.6619 30.0538 15.1758 29.8088 15.9204 29.6533C15.8622 27.5295 15.9132 25.3898 15.9155 23.2648C15.9181 20.8765 15.8763 18.4831 15.9034 16.0954C15.9191 14.5329 15.9224 12.9704 15.9134 11.408C15.9132 11.0319 15.9753 10.0514 15.9022 9.74259L15.851 9.72752Z" fill="white"/>
<path d="M53.1756 28.9922V18.364H48.9964V16.3824H59.6966V18.364H55.5174V28.9922H53.1756ZM66.114 28.9922V27.0467L65.9879 26.6324V23.2277C65.9879 22.5672 65.7897 22.0568 65.3934 21.6965C64.9971 21.3243 64.3966 21.1381 63.592 21.1381C63.0516 21.1381 62.5172 21.2222 61.9888 21.3903C61.4724 21.5584 61.034 21.7926 60.6738 22.0929L59.7911 20.4536C60.3075 20.0573 60.92 19.7631 61.6285 19.5709C62.3491 19.3667 63.0936 19.2647 63.8622 19.2647C65.2553 19.2647 66.3301 19.6009 67.0867 20.2734C67.8553 20.934 68.2396 21.9608 68.2396 23.3538V28.9922H66.114ZM63.0876 29.1183C62.3671 29.1183 61.7366 28.9982 61.1962 28.758C60.6557 28.5058 60.2354 28.1635 59.9352 27.7312C59.647 27.2869 59.5029 26.7885 59.5029 26.2361C59.5029 25.6956 59.629 25.2093 59.8811 24.7769C60.1454 24.3446 60.5717 24.0023 61.1601 23.7501C61.7486 23.4979 62.5292 23.3718 63.5019 23.3718H66.2941V24.867H63.6641C62.8955 24.867 62.3791 24.9931 62.1149 25.2453C61.8507 25.4855 61.7186 25.7857 61.7186 26.146C61.7186 26.5543 61.8807 26.8786 62.2049 27.1187C62.5292 27.3589 62.9795 27.479 63.556 27.479C64.1084 27.479 64.6008 27.3529 65.0331 27.1007C65.4775 26.8485 65.7957 26.4762 65.9879 25.9839L66.3662 27.3349C66.15 27.8993 65.7597 28.3377 65.1953 28.6499C64.6428 28.9622 63.9403 29.1183 63.0876 29.1183ZM73.5613 29.1183C72.7567 29.1183 71.9821 29.0162 71.2375 28.812C70.505 28.5959 69.9225 28.3377 69.4902 28.0374L70.3548 26.3261C70.7872 26.6023 71.3036 26.8305 71.904 27.0107C72.5045 27.1908 73.105 27.2809 73.7054 27.2809C74.414 27.2809 74.9244 27.1848 75.2366 26.9926C75.5609 26.8005 75.723 26.5423 75.723 26.218C75.723 25.9538 75.6149 25.7557 75.3987 25.6236C75.1826 25.4795 74.9004 25.3714 74.5521 25.2993C74.2038 25.2273 73.8135 25.1612 73.3812 25.1012C72.9609 25.0411 72.5345 24.9631 72.1022 24.867C71.6819 24.7589 71.2976 24.6088 70.9493 24.4166C70.601 24.2125 70.3188 23.9423 70.1026 23.606C69.8865 23.2698 69.7784 22.8254 69.7784 22.273C69.7784 21.6605 69.9525 21.1321 70.3008 20.6878C70.6491 20.2314 71.1354 19.8831 71.7599 19.643C72.3964 19.3908 73.147 19.2647 74.0117 19.2647C74.6602 19.2647 75.3147 19.3367 75.9752 19.4808C76.6357 19.6249 77.1821 19.8291 77.6145 20.0933L76.7498 21.8046C76.2934 21.5284 75.8311 21.3423 75.3627 21.2462C74.9064 21.1381 74.45 21.0841 73.9937 21.0841C73.3091 21.0841 72.7987 21.1862 72.4625 21.3903C72.1382 21.5945 71.9761 21.8527 71.9761 22.1649C71.9761 22.4531 72.0842 22.6693 72.3003 22.8134C72.5165 22.9575 72.7987 23.0716 73.147 23.1557C73.4953 23.2397 73.8796 23.3118 74.2999 23.3718C74.7322 23.4199 75.1586 23.4979 75.5789 23.606C75.9992 23.7141 76.3835 23.8642 76.7318 24.0564C77.0921 24.2365 77.3803 24.4947 77.5964 24.831C77.8126 25.1672 77.9207 25.6056 77.9207 26.146C77.9207 26.7465 77.7406 27.2689 77.3803 27.7132C77.032 28.1575 76.5336 28.5058 75.8851 28.758C75.2366 28.9982 74.462 29.1183 73.5613 29.1183ZM82.9402 29.1183C81.8834 29.1183 81.0668 28.8481 80.4903 28.3077C79.9139 27.7552 79.6257 26.9446 79.6257 25.8758V17.2471H81.8774V25.8217C81.8774 26.2781 81.9915 26.6324 82.2197 26.8846C82.4599 27.1368 82.7901 27.2629 83.2105 27.2629C83.7148 27.2629 84.1352 27.1307 84.4714 26.8665L85.1019 28.4698C84.8377 28.686 84.5135 28.8481 84.1292 28.9562C83.7449 29.0642 83.3486 29.1183 82.9402 29.1183ZM78.0405 21.2462V19.4448H84.4534V21.2462H78.0405ZM90.6187 29.1183C89.5499 29.1183 88.6131 28.9081 87.8085 28.4878C87.0159 28.0555 86.3974 27.467 85.9531 26.7224C85.5207 25.9779 85.3046 25.1312 85.3046 24.1825C85.3046 23.2217 85.5147 22.3751 85.9351 21.6425C86.3674 20.8979 86.9559 20.3155 87.7004 19.8952C88.457 19.4748 89.3157 19.2647 90.2764 19.2647C91.2131 19.2647 92.0478 19.4688 92.7804 19.8771C93.5129 20.2855 94.0894 20.8619 94.5097 21.6065C94.93 22.3511 95.1402 23.2277 95.1402 24.2365C95.1402 24.3326 95.1342 24.4407 95.1222 24.5608C95.1222 24.6809 95.1162 24.7949 95.1042 24.903H87.088V23.4079H93.9152L93.0325 23.8762C93.0446 23.3238 92.9305 22.8374 92.6903 22.4171C92.4501 21.9968 92.1198 21.6665 91.6995 21.4263C91.2912 21.1862 90.8168 21.0661 90.2764 21.0661C89.724 21.0661 89.2376 21.1862 88.8173 21.4263C88.409 21.6665 88.0847 22.0028 87.8445 22.4351C87.6164 22.8554 87.5023 23.3538 87.5023 23.9303V24.2906C87.5023 24.867 87.6344 25.3774 87.8986 25.8217C88.1628 26.2661 88.5351 26.6083 89.0154 26.8485C89.4958 27.0887 90.0482 27.2088 90.6727 27.2088C91.2131 27.2088 91.6995 27.1247 92.1319 26.9566C92.5642 26.7885 92.9485 26.5243 93.2847 26.164L94.4917 27.5511C94.0593 28.0555 93.5129 28.4458 92.8524 28.722C92.2039 28.9862 91.4593 29.1183 90.6187 29.1183ZM101.086 29.1183C100.101 29.1183 99.2246 28.9081 98.456 28.4878C97.6874 28.0555 97.0809 27.467 96.6366 26.7224C96.1923 25.9779 95.9701 25.1312 95.9701 24.1825C95.9701 23.2217 96.1923 22.3751 96.6366 21.6425C97.0809 20.8979 97.6874 20.3155 98.456 19.8952C99.2246 19.4748 100.101 19.2647 101.086 19.2647C102.083 19.2647 102.965 19.4748 103.734 19.8952C104.515 20.3155 105.121 20.8919 105.553 21.6245C105.998 22.3571 106.22 23.2097 106.22 24.1825C106.22 25.1312 105.998 25.9779 105.553 26.7224C105.121 27.467 104.515 28.0555 103.734 28.4878C102.965 28.9081 102.083 29.1183 101.086 29.1183ZM101.086 27.1908C101.638 27.1908 102.131 27.0707 102.563 26.8305C102.996 26.5903 103.332 26.2421 103.572 25.7857C103.824 25.3294 103.95 24.7949 103.95 24.1825C103.95 23.558 103.824 23.0236 103.572 22.5792C103.332 22.1229 102.996 21.7746 102.563 21.5344C102.131 21.2942 101.644 21.1741 101.104 21.1741C100.552 21.1741 100.059 21.2942 99.6269 21.5344C99.2066 21.7746 98.8703 22.1229 98.6181 22.5792C98.3659 23.0236 98.2398 23.558 98.2398 24.1825C98.2398 24.7949 98.3659 25.3294 98.6181 25.7857C98.8703 26.2421 99.2066 26.5903 99.6269 26.8305C100.059 27.0707 100.546 27.1908 101.086 27.1908ZM107.833 28.9922V19.3727H109.976V22.0208L109.724 21.2462C110.013 20.5977 110.463 20.1053 111.075 19.7691C111.7 19.4328 112.474 19.2647 113.399 19.2647V21.4083C113.303 21.3843 113.213 21.3723 113.129 21.3723C113.045 21.3603 112.961 21.3543 112.877 21.3543C112.024 21.3543 111.346 21.6065 110.841 22.1109C110.337 22.6032 110.085 23.3418 110.085 24.3266V28.9922H107.833ZM120.009 28.9922V27.0467L119.883 26.6324V23.2277C119.883 22.5672 119.685 22.0568 119.289 21.6965C118.893 21.3243 118.292 21.1381 117.487 21.1381C116.947 21.1381 116.413 21.2222 115.884 21.3903C115.368 21.5584 114.929 21.7926 114.569 22.0929L113.687 20.4536C114.203 20.0573 114.815 19.7631 115.524 19.5709C116.244 19.3667 116.989 19.2647 117.758 19.2647C119.151 19.2647 120.226 19.6009 120.982 20.2734C121.751 20.934 122.135 21.9608 122.135 23.3538V28.9922H120.009ZM116.983 29.1183C116.262 29.1183 115.632 28.9982 115.092 28.758C114.551 28.5058 114.131 28.1635 113.831 27.7312C113.542 27.2869 113.398 26.7885 113.398 26.2361C113.398 25.6956 113.524 25.2093 113.777 24.7769C114.041 24.3446 114.467 24.0023 115.056 23.7501C115.644 23.4979 116.425 23.3718 117.397 23.3718H120.19V24.867H117.559C116.791 24.867 116.275 24.9931 116.01 25.2453C115.746 25.4855 115.614 25.7857 115.614 26.146C115.614 26.5543 115.776 26.8786 116.1 27.1187C116.425 27.3589 116.875 27.479 117.451 27.479C118.004 27.479 118.496 27.3529 118.929 27.1007C119.373 26.8485 119.691 26.4762 119.883 25.9839L120.262 27.3349C120.045 27.8993 119.655 28.3377 119.091 28.6499C118.538 28.9622 117.836 29.1183 116.983 29.1183ZM136.626 19.2647C137.394 19.2647 138.073 19.4148 138.661 19.715C139.262 20.0152 139.73 20.4776 140.066 21.1021C140.403 21.7146 140.571 22.5072 140.571 23.4799V28.9922H138.319V23.7681C138.319 22.9155 138.133 22.279 137.761 21.8587C137.388 21.4383 136.854 21.2282 136.157 21.2282C135.665 21.2282 135.227 21.3363 134.842 21.5524C134.47 21.7686 134.176 22.0868 133.96 22.5072C133.756 22.9275 133.654 23.4619 133.654 24.1104V28.9922H131.402V23.7681C131.402 22.9155 131.216 22.279 130.843 21.8587C130.471 21.4383 129.937 21.2282 129.24 21.2282C128.748 21.2282 128.309 21.3363 127.925 21.5524C127.553 21.7686 127.259 22.0868 127.042 22.5072C126.838 22.9275 126.736 23.4619 126.736 24.1104V28.9922H124.484V19.3727H126.628V21.9307L126.25 21.1741C126.574 20.5497 127.042 20.0753 127.655 19.751C128.279 19.4268 128.988 19.2647 129.781 19.2647C130.681 19.2647 131.462 19.4868 132.122 19.9312C132.795 20.3755 133.239 21.048 133.455 21.9487L132.573 21.6425C132.885 20.9219 133.401 20.3455 134.122 19.9132C134.842 19.4808 135.677 19.2647 136.626 19.2647ZM148.834 28.9922V27.0467L148.708 26.6324V23.2277C148.708 22.5672 148.51 22.0568 148.114 21.6965C147.718 21.3243 147.117 21.1381 146.313 21.1381C145.772 21.1381 145.238 21.2222 144.709 21.3903C144.193 21.5584 143.755 21.7926 143.394 22.0929L142.512 20.4536C143.028 20.0573 143.64 19.7631 144.349 19.5709C145.07 19.3667 145.814 19.2647 146.583 19.2647C147.976 19.2647 149.051 19.6009 149.807 20.2734C150.576 20.934 150.96 21.9608 150.96 23.3538V28.9922H148.834ZM145.808 29.1183C145.088 29.1183 144.457 28.9982 143.917 28.758C143.376 28.5058 142.956 28.1635 142.656 27.7312C142.367 27.2869 142.223 26.7885 142.223 26.2361C142.223 25.6956 142.349 25.2093 142.602 24.7769C142.866 24.3446 143.292 24.0023 143.881 23.7501C144.469 23.4979 145.25 23.3718 146.222 23.3718H149.015V24.867H146.385C145.616 24.867 145.1 24.9931 144.835 25.2453C144.571 25.4855 144.439 25.7857 144.439 26.146C144.439 26.5543 144.601 26.8786 144.925 27.1187C145.25 27.3589 145.7 27.479 146.277 27.479C146.829 27.479 147.321 27.3529 147.754 27.1007C148.198 26.8485 148.516 26.4762 148.708 25.9839L149.087 27.3349C148.871 27.8993 148.48 28.3377 147.916 28.6499C147.363 28.9622 146.661 29.1183 145.808 29.1183Z" fill="white"/>
</svg>
