<svg width="15" height="14" viewBox="0 0 15 14" fill="none" xmlns="http://www.w3.org/2000/svg">
<path d="M9.53571 12.1124C8.72129 12.4906 7.81731 12.7368 6.86549 12.7368C3.28098 12.7368 0.375171 9.24568 0.375171 8.35862C0.375171 7.8558 1.30882 6.51631 2.7705 5.45021M12.577 9.76171C13.0737 9.16413 13.3558 8.63499 13.3558 8.35862C13.3558 7.47156 10.45 3.98049 6.86549 3.98049C8.44267 3.98049 9.7212 5.24882 9.7212 6.8134M6.86546 9.64631C5.28828 9.64631 4.00972 8.37797 4.00972 6.8134M13.875 3.98057C11.8982 2.3445 9.59025 1.4052 7.1251 1.4052C6.23658 1.4052 5.3685 1.52722 4.52897 1.75992M0.375171 3.98057C0.558415 3.82892 0.744503 3.68325 0.933297 3.54376M0.375 0.375L12.9106 13.0311" stroke="black" stroke-width="0.75" stroke-linecap="round"/>
</svg>
