<svg width="32" height="30" viewBox="0 0 32 30" fill="none" xmlns="http://www.w3.org/2000/svg">
    <path d="M13.2628 5.55336C13.585 5.51975 13.9173 5.5539 14.2303 5.63209C15.1574 5.86378 15.786 6.43298 16.2636 7.22891C16.6433 7.18861 17.0271 7.21211 17.3989 7.2984C18.1925 7.49511 18.8768 7.98937 19.3062 8.67594C19.5181 9.01424 19.6588 9.39114 19.7199 9.78416C19.7809 10.1772 19.761 10.5783 19.6614 10.9636C19.3961 11.9663 18.7595 12.4884 17.8924 12.9885C17.9165 13.604 17.9074 14.2227 17.9088 14.8388C17.9095 15.228 17.935 15.6341 17.8968 16.0204C17.8804 16.1843 17.8484 16.3184 17.7632 16.4602C17.6387 16.5492 17.5113 16.5762 17.3599 16.5944C16.9632 16.6421 16.5322 16.6099 16.1322 16.6089L13.7731 16.6006C12.9341 16.6626 12.0455 16.6039 11.2013 16.6046C10.6394 16.6051 10.0068 16.6709 9.45188 16.6083C9.25391 16.5861 9.16943 16.4557 9.0611 16.3101C8.99111 15.2051 9.05055 14.0633 9.05102 12.9542C8.58886 12.7181 8.19575 12.4283 7.87384 12.0209C7.63364 11.717 7.457 11.3691 7.35415 10.9974C7.2513 10.6258 7.22427 10.2377 7.27464 9.85566C7.39515 9.04271 7.83562 8.30922 8.50074 7.81389C9.15858 7.32788 9.9373 7.1298 10.748 7.24107C10.8609 7.04536 10.9735 6.84887 11.1136 6.67044C11.6538 5.98244 12.4064 5.66104 13.2628 5.55336ZM13.308 6.91056C12.7816 7.01383 12.3281 7.20198 12.0104 7.65746C11.8327 7.91243 11.6703 8.64509 11.4487 8.75697C11.1553 8.79155 10.8483 8.65671 10.564 8.59487C9.99325 8.47069 9.34833 8.69714 8.99464 9.15567C8.70374 9.53278 8.56677 10.0527 8.64466 10.5208C8.71517 10.9443 8.97415 11.2994 9.32853 11.542C9.71523 11.8068 10.1463 11.8594 10.4134 12.275C10.4626 13.2381 10.4269 14.2179 10.4284 15.183C11.5524 15.1742 12.6764 15.1719 13.8004 15.1758L16.546 15.1702C16.5457 14.6811 16.4401 12.2482 16.6687 12.0093C16.7761 11.8973 17.0218 11.8289 17.167 11.7725C17.8211 11.5183 18.2997 11.0774 18.3594 10.352C18.3991 9.87287 18.2426 9.44217 17.9205 9.08501C17.6271 8.7598 17.2442 8.5873 16.8034 8.5614C16.4164 8.53862 15.6197 8.9039 15.3765 8.63196C15.2582 8.49953 15.2109 8.27232 15.1505 8.10592C14.903 7.42118 14.3854 7.02377 13.6574 6.92943C13.5406 6.91433 13.4255 6.90812 13.308 6.91056Z" fill="white"/>
    <path d="M26.2305 1.31105C26.474 1.29351 26.7663 1.29667 26.9584 1.4719C27.1375 1.63504 27.1459 1.89682 27.0862 2.11477C26.9417 2.64283 26.4783 3.27515 26.1995 3.75543C25.7533 4.52371 25.3369 5.31318 24.9037 6.08971C24.6358 6.5706 24.3115 7.06245 24.0971 7.56493C24.029 7.72474 23.9774 7.8925 23.985 8.06773C23.9916 8.21993 24.0454 8.33447 24.1626 8.43437C24.3286 8.57566 24.5477 8.68596 24.773 8.65633C24.923 8.63664 25.0431 8.55808 25.1359 8.44272C25.4537 8.04793 25.6419 7.49807 25.8741 7.05141L27.4746 3.96244C27.6639 3.59311 27.8306 3.13999 28.0963 2.82067C28.2368 2.65183 28.3675 2.57162 28.5917 2.55275C28.7689 2.53783 28.9415 2.5836 29.0783 2.6985C29.2403 2.83484 29.316 3.05437 29.284 3.26073C29.2225 3.6575 28.869 4.13939 28.6805 4.50104L27.2274 7.34992C26.9683 7.86374 26.6643 8.38903 26.4554 8.92429C26.407 9.04876 26.3586 9.18815 26.3768 9.32328C26.3979 9.48165 26.5155 9.62076 26.6436 9.7105C26.787 9.81091 26.9821 9.87752 27.1583 9.83878C27.361 9.79419 27.503 9.64787 27.6165 9.48505C27.875 9.11516 28.046 8.62932 28.2364 8.21993L29.4769 5.59093C29.7106 5.09183 29.9235 4.5057 30.2351 4.0524C30.3472 3.8893 30.4677 3.75912 30.6741 3.72759C30.883 3.6957 31.0945 3.7833 31.2521 3.91408C31.3835 4.02291 31.4814 4.15065 31.4872 4.32477C31.5025 4.77175 30.6821 6.32345 30.4589 6.82227L29.5799 8.78676C29.1482 9.75552 28.7799 10.7267 28.0522 11.5282C27.3355 12.3175 26.5202 12.6524 25.5363 13.0044C25.3289 13.0787 25.0107 13.1519 24.8346 13.2776C24.4866 13.5263 24.2442 13.9861 24.04 14.3488C23.8834 14.6276 23.6833 14.9304 23.585 15.235C23.4405 15.6838 23.5362 17.0563 23.5362 17.598L23.5347 24.594L23.5384 26.733C23.5391 27.152 23.5646 27.59 23.518 28.0061C23.5009 28.1585 23.4405 28.3285 23.3273 28.438C22.9866 28.7687 21.7312 28.6517 21.2492 28.6492L17.9639 28.6449C18.1531 28.1427 18.3872 27.6492 18.634 27.1717C19.0602 27.1276 19.4985 27.1466 19.9272 27.1462L22.0464 27.1473L22.0468 18.0047C21.7723 18.6548 21.4229 19.2906 21.1069 19.9228C20.5449 21.0423 19.989 22.1648 19.4391 23.2901C18.7754 24.6591 18.1011 26.0231 17.4164 27.3819C17.13 27.9498 16.8755 28.5484 16.5501 29.0951C16.418 29.3168 16.2586 29.5169 16.0376 29.6594C15.7375 29.8509 15.3734 29.9192 15.0228 29.8498C14.8524 29.8147 14.6912 29.7452 14.5493 29.6459C14.4074 29.5465 14.2878 29.4193 14.198 29.2723C14.008 28.9667 13.9596 28.6241 14.063 28.2805C14.2319 27.7191 14.5875 27.1775 14.8681 26.6631L16.204 24.2185C17.8219 21.2564 19.4533 18.2956 21.0185 15.3063C21.3876 14.6017 22.2229 13.2663 22.4238 12.6025C22.643 11.8801 22.1829 11.0152 22.0482 10.3046C21.927 9.66556 21.9419 9.05023 22.1064 8.41988C22.1755 8.15044 22.2732 7.88894 22.398 7.63972C22.6117 7.21892 22.8694 6.81606 23.1074 6.40825L24.3413 4.27814L25.3372 2.5511C25.5338 2.21069 25.7205 1.84391 25.9586 1.5304C26.0328 1.43255 26.1249 1.37261 26.2305 1.31105Z" fill="white"/>
    <path d="M3.83251 0.0309689C4.97486 -0.0286841 6.14255 0.0223961 7.28795 0.0234364L13.8525 0.0258392L19.8085 0.0228978C20.7745 0.0227902 21.7784 -0.0323069 22.7411 0.0288168C22.9381 0.0412998 23.1619 0.0961456 23.3108 0.231916C23.4415 0.351115 23.4975 0.560564 23.5226 0.72747C23.5736 1.06602 23.5434 1.4371 23.5427 1.78028L23.5343 3.72669C23.0575 4.49332 22.5355 5.23821 22.0346 5.9901C22.0787 5.48565 22.0481 4.96107 22.0481 4.45397L22.0477 1.60146C16.3367 1.60641 10.6185 1.65832 4.90796 1.59802C4.85027 3.9342 4.90312 6.2852 4.90305 8.62272L4.90618 21.5441L12.6036 21.5409L14.987 21.5366C15.4282 21.5359 15.8978 21.505 16.3349 21.5602C16.1726 22.063 15.8639 22.5681 15.624 23.0416L7.68962 23.0247L5.30082 23.0236C4.7564 23.0247 4.18926 22.9989 3.65008 23.0778C3.1859 23.1432 2.7486 23.3321 2.38521 23.6241C1.94096 23.9789 1.61752 24.4922 1.57119 25.0618C1.53038 25.5633 1.7293 26.0475 2.05529 26.426C2.3613 26.7811 2.83158 27.0498 3.29581 27.1373C3.97418 27.2653 4.98236 27.1746 5.69662 27.1767L10.5512 27.181C11.4538 27.1818 12.3732 27.1437 13.273 27.2094C13.1132 27.6764 12.9673 28.1818 12.8763 28.6661C12.0621 28.594 11.1952 28.6528 10.3743 28.6528L5.51277 28.6517C4.66674 28.6539 3.70381 28.7507 2.87828 28.5739C2.29855 28.4498 1.75438 28.1485 1.30099 27.7761C0.569882 27.1764 0.109797 26.2506 0.0351064 25.3204C-0.00664331 24.8003 0.0235683 24.2608 0.0258978 23.7389L0.0270264 21.2059L0.026591 12.4463L0.0248803 6.37226C0.0242979 5.591 -0.0485751 4.21715 0.0578559 3.47972C0.157499 2.74839 0.471366 2.06156 0.961028 1.50332C1.68223 0.656743 2.71512 0.127134 3.83251 0.0309689ZM3.38029 1.66502C2.57609 1.99119 1.98588 2.39973 1.6434 3.21557C1.52521 3.49708 1.49369 3.84406 1.48343 4.14724C1.43312 5.63372 1.47957 7.13832 1.48059 8.62706L1.48179 17.2205L1.48241 21.0303C1.48277 21.4619 1.40178 22.0505 1.49744 22.4619L1.5318 22.4737L1.58505 22.4393C2.19117 21.9913 2.70505 21.7463 3.44974 21.5908C3.39154 19.467 3.4425 17.3273 3.44479 15.2023C3.44738 12.814 3.40555 10.4206 3.43274 8.03286C3.44841 6.47044 3.45172 4.90793 3.44268 3.34546C3.44246 2.96939 3.50456 1.98894 3.43147 1.68009L3.38029 1.66502Z" fill="white"/>
</svg>