<svg width="15" height="13" viewBox="0 0 15 13" fill="none" xmlns="http://www.w3.org/2000/svg">
<path d="M6.99039 3.05679C3.40584 3.05679 0.5 6.52272 0.5 7.40338C0.5 8.28405 3.40584 11.75 6.99039 11.75C10.5749 11.75 13.4808 8.28405 13.4808 7.40338C13.4808 6.52272 10.5749 3.05679 6.99039 3.05679ZM6.99039 3.05679C5.41319 3.05679 4.13464 4.31599 4.13464 5.86929C4.13464 7.42259 5.41322 8.68179 6.99041 8.68179C8.56761 8.68179 9.84618 7.42259 9.84618 5.86929C9.84618 4.31599 8.56758 3.05679 6.99039 3.05679ZM14 3.05682C12.0231 1.43253 9.71518 0.5 7.25 0.5C4.78482 0.5 2.47688 1.43253 0.5 3.05682" stroke="black" stroke-linecap="round"/>
</svg>
